<svg width="1338" height="857" xmlns="http://www.w3.org/2000/svg" xmlns:xlink="http://www.w3.org/1999/xlink" xml:space="preserve" overflow="hidden"><defs><clipPath id="clip0"><rect x="1370" y="605" width="1338" height="857"/></clipPath></defs><g clip-path="url(#clip0)" transform="translate(-1370 -605)"><path d="M1458 1090.17C1458 1079.03 1467.03 1070 1478.17 1070L1633.83 1070C1644.97 1070 1654 1079.03 1654 1090.17L1654 1170.83C1654 1181.97 1644.97 1191 1633.83 1191L1478.17 1191C1467.03 1191 1458 1181.97 1458 1170.83Z" fill="#5B9BD5" fill-rule="evenodd" fill-opacity="1"/><text fill="#FFFFFF" fill-opacity="1" font-family="Times New Roman,Times New Roman_MSFontService,sans-serif" font-style="normal" font-variant="normal" font-weight="400" font-stretch="normal" font-size="83" text-anchor="start" direction="ltr" writing-mode="lr-tb" unicode-bidi="normal" text-decoration="none" transform="matrix(1 0 0 1 1515.1 1161)">01</text><path d="M1941 1090.17C1941 1079.03 1950.03 1070 1961.17 1070L2117.83 1070C2128.97 1070 2138 1079.03 2138 1090.17L2138 1170.83C2138 1181.97 2128.97 1191 2117.83 1191L1961.17 1191C1950.03 1191 1941 1181.97 1941 1170.83Z" fill="#5B9BD5" fill-rule="evenodd" fill-opacity="1"/><text fill="#FFFFFF" fill-opacity="1" font-family="Times New Roman,Times New Roman_MSFontService,sans-serif" font-style="normal" font-variant="normal" font-weight="400" font-stretch="normal" font-size="83" text-anchor="start" direction="ltr" writing-mode="lr-tb" unicode-bidi="normal" text-decoration="none" transform="matrix(1 0 0 1 1998.21 1161)">00</text><path d="M2424 1090.17C2424 1079.03 2433.03 1070 2444.17 1070L2600.83 1070C2611.97 1070 2621 1079.03 2621 1090.17L2621 1170.83C2621 1181.97 2611.97 1191 2600.83 1191L2444.17 1191C2433.03 1191 2424 1181.97 2424 1170.83Z" fill="#5B9BD5" fill-rule="evenodd" fill-opacity="1"/><text fill="#FFFFFF" fill-opacity="1" font-family="Times New Roman,Times New Roman_MSFontService,sans-serif" font-style="normal" font-variant="normal" font-weight="400" font-stretch="normal" font-size="83" text-anchor="start" direction="ltr" writing-mode="lr-tb" unicode-bidi="normal" text-decoration="none" transform="matrix(1 0 0 1 2481.32 1161)">10</text><path d="M-0.383422 3.41605-3.35444 3.08258-6.59862 2.00341-9.69127 0.309016-12.6399-1.92939-15.4682-4.66621-18.1991-7.87375-20.8487-11.5332-23.427-15.6291-25.9394-20.1471-28.3877-25.0723-30.7717-30.3897-33.0987-36.1061-37.5155-48.5314-41.6374-62.2888-45.4208-77.2121-48.8286-93.1594-51.8224-109.987-54.3626-127.551-56.4092-145.706-57.9217-164.306-58.8594-183.205-59.1814-202.27-58.9416-211.903-58.2315-221.527-57.0672-231.108-55.4642-240.628-53.4381-250.068-51.0041-259.411-48.1777-268.638-44.9625-277.763-37.497-295.44-28.6886-312.397-18.6695-328.453-7.55684-343.465 4.53379-357.285 17.4591-369.737 24.2536-375.453 31.1926-380.754 38.2914-385.644 45.5361-390.106 52.9126-394.119 60.407-397.664 68.0052-400.72 75.6926-403.268 83.4544-405.285 91.2752-406.753 99.1389-407.649 107.028-407.952 114.919-407.645 122.786-406.737 130.609-405.25 138.373-403.206 146.063-400.625 153.662-397.529 161.158-393.938 168.535-389.873 175.78-385.354 182.879-380.4 189.818-375.032 196.583-369.268 203.16-363.127 209.56-356.603 221.625-342.636 232.735-327.435 242.752-311.175 251.559-294.005 259.022-276.105 262.236-266.866 265.062-257.524 267.495-248.064 269.52-238.506 271.123-228.868 272.286-219.167 272.996-209.424 273.236-199.662 272.811-180.329 271.571-161.155 269.571-142.286 266.865-123.869 263.507-106.051 259.548-88.9786 255.042-72.7982 250.039-57.6549 244.597-43.7188 241.707-37.2029 238.732-31.0581 235.666-25.279 232.513-19.8827 229.276-14.8864 225.783-10.066 218.321-3.63393 213.832-8.84126 220.99-15.0115 220.451-14.425 223.657-18.8481 223.555-18.6999 226.7-23.5543 226.617-23.4195 229.694-28.6865 229.626-28.5634 232.629-34.2243 232.572-34.1112 235.494-40.1472 235.446-40.0428 238.281-46.4351 238.221-46.2918 243.601-60.0705 243.54-59.8986 248.489-74.8775 248.441-74.7213 252.905-90.7506 252.868-90.6048 256.793-107.534 256.764-107.395 260.096-125.074 260.073-124.937 262.759-143.217 262.742-143.08 264.727-161.81 264.715-161.669 265.945-180.699 265.939-180.553 266.361-199.733 266.361-199.573 266.125-209.172 266.133-209.007 265.435-218.588 265.451-218.428 264.306-227.971 264.328-227.817 262.751-237.304 262.779-237.155 260.784-246.567 260.818-246.423 258.421-255.741 258.46-255.602 255.676-264.808 255.72-264.674 252.563-273.748 252.637-273.555 245.265-291.234 245.379-290.988 236.696-307.918 236.828-307.684 226.953-323.713 227.105-323.487 216.157-338.466 216.331-338.248 204.429-352.026 204.576-351.866 198.305-358.259 198.413-358.153 191.948-364.189 192.064-364.085 185.421-369.746 185.546-369.644 178.739-374.911 178.875-374.811 171.918-379.665 172.066-379.568 164.975-383.991 165.136-383.896 157.925-387.869 158.099-387.78 150.785-391.284 150.973-391.201 143.569-394.217 143.772-394.142 136.294-396.652 136.512-396.586 128.974-398.571 129.208-398.518 121.625-399.96 121.873-399.922 114.261-400.8 114.521-400.78 106.894-401.077 107.159-401.077 99.5319-400.784 99.7889-400.803 92.1765-399.936 92.4213-399.973 84.8386-398.55 85.0696-398.602 77.5317-396.642 77.748-396.706 70.2697-394.228 70.4712-394.302 63.0674-391.323 63.2543-391.405 55.9399-387.946 56.1128-388.033 48.9027-384.111 49.0626-384.204 41.9717-379.837 42.1193-379.933 35.1625-375.14 35.299-375.239 28.4912-370.039 28.6174-370.14 21.9736-364.551 22.1457-364.706 9.40938-352.435 9.61151-352.647-2.29028-339.043-2.11458-339.262-13.0626-324.473-12.9091-324.698-22.7842-308.872-22.6501-309.107-31.3331-292.393-31.2168-292.64-38.5884-275.184-38.513-275.379-41.6697-266.42-41.6251-266.556-44.4093-257.467-44.3696-257.607-46.7663-248.407-46.7318-248.553-48.7262-239.26-48.6974-239.411-50.2745-230.044-50.2519-230.2-51.3969-220.778-51.3811-220.94-52.079-211.481-52.0708-211.648-52.3067-202.17-52.3062-202.314-51.9863-183.377-51.9901-183.489-51.0578-164.701-51.0649-164.809-49.5611-146.317-49.5714-146.423-47.5369-128.375-47.5506-128.482-45.0261-111.027-45.0439-111.137-42.0703-94.4219-42.093-94.5382-38.7111-78.7123-38.7407-78.8387-34.9913-64.0497-35.0305-64.1915-30.9546-50.5877-31.0085-50.7524-26.6468-38.4817-26.7019-38.6265-24.4267-33.0374-24.4738-33.1476-22.1423-27.9474-22.2009-28.0713-19.8184-23.2784-19.8923-23.4189-17.464-19.052-17.5591-19.2126-15.0899-15.2901-15.2147-15.4748-12.7098-12.0152-12.8767-12.2276-10.3411-9.24945-10.5681-9.49137-8.00702-7.01317-8.31892-7.28079-5.73743-5.32107-6.16424-5.59782-3.56744-4.17509-4.1341-4.42217-1.52709-3.55496-2.22869-3.70924 0.383422-3.41605ZM226.909 3.39163 196.216 5.19685 213.188-20.4406Z" fill="#ED7D31" fill-rule="nonzero" fill-opacity="1" transform="matrix(-1 0 0 1 1654.72 1130.5)"/><text fill="#4472C4" fill-opacity="1" font-family="Times New Roman,Times New Roman_MSFontService,sans-serif" font-style="normal" font-variant="normal" font-weight="400" font-stretch="normal" font-size="83" text-anchor="start" direction="ltr" writing-mode="lr-tb" unicode-bidi="normal" text-decoration="none" transform="matrix(1 0 0 1 1535.73 712)">0</text><path d="M-0.383422 3.41605-3.35444 3.08258-6.59862 2.00341-9.69127 0.309016-12.6399-1.92939-15.4682-4.66621-18.1991-7.87375-20.8487-11.5332-23.427-15.6291-25.9394-20.1471-28.3877-25.0723-30.7717-30.3897-33.0987-36.1061-37.5155-48.5314-41.6374-62.2888-45.4208-77.2121-48.8286-93.1594-51.8224-109.987-54.3626-127.551-56.4092-145.706-57.9217-164.306-58.8594-183.205-59.1814-202.27-58.9416-211.903-58.2315-221.527-57.0672-231.108-55.4642-240.628-53.4381-250.068-51.0041-259.411-48.1777-268.638-44.9625-277.763-37.497-295.44-28.6886-312.397-18.6695-328.453-7.55684-343.465 4.53379-357.285 17.4591-369.737 24.2536-375.453 31.1926-380.754 38.2914-385.644 45.5361-390.106 52.9126-394.119 60.407-397.664 68.0052-400.72 75.6926-403.268 83.4544-405.285 91.2752-406.753 99.1389-407.649 107.028-407.952 114.919-407.645 122.786-406.737 130.609-405.25 138.373-403.206 146.063-400.625 153.662-397.529 161.158-393.938 168.535-389.873 175.78-385.354 182.879-380.4 189.818-375.032 196.583-369.268 203.16-363.127 209.56-356.603 221.625-342.636 232.735-327.435 242.752-311.175 251.559-294.005 259.022-276.105 262.236-266.866 265.062-257.524 267.495-248.064 269.52-238.506 271.123-228.868 272.286-219.167 272.996-209.424 273.236-199.662 272.811-180.329 271.571-161.155 269.571-142.286 266.865-123.869 263.507-106.051 259.548-88.9786 255.042-72.7982 250.039-57.6549 244.597-43.7188 241.707-37.2029 238.732-31.0581 235.666-25.279 232.513-19.8827 229.276-14.8864 225.783-10.066 218.321-3.63393 213.832-8.84126 220.99-15.0115 220.451-14.425 223.657-18.8481 223.555-18.6999 226.7-23.5543 226.617-23.4195 229.694-28.6865 229.626-28.5634 232.629-34.2243 232.572-34.1112 235.494-40.1472 235.446-40.0428 238.281-46.4351 238.221-46.2918 243.601-60.0705 243.54-59.8986 248.489-74.8775 248.441-74.7213 252.905-90.7506 252.868-90.6048 256.793-107.534 256.764-107.395 260.096-125.074 260.073-124.937 262.759-143.217 262.742-143.08 264.727-161.81 264.715-161.669 265.945-180.699 265.939-180.553 266.361-199.733 266.361-199.573 266.125-209.172 266.133-209.007 265.435-218.588 265.451-218.428 264.306-227.971 264.328-227.817 262.751-237.304 262.779-237.155 260.784-246.567 260.818-246.423 258.421-255.741 258.46-255.602 255.676-264.808 255.72-264.674 252.563-273.748 252.637-273.555 245.265-291.234 245.379-290.988 236.696-307.918 236.828-307.684 226.953-323.713 227.105-323.487 216.157-338.466 216.331-338.248 204.429-352.026 204.576-351.866 198.305-358.259 198.413-358.153 191.948-364.189 192.064-364.085 185.421-369.746 185.546-369.644 178.739-374.911 178.875-374.811 171.918-379.665 172.066-379.568 164.975-383.991 165.136-383.896 157.925-387.869 158.099-387.78 150.785-391.284 150.973-391.201 143.569-394.217 143.772-394.142 136.294-396.652 136.512-396.586 128.974-398.571 129.208-398.518 121.625-399.96 121.873-399.922 114.261-400.8 114.521-400.78 106.894-401.077 107.159-401.077 99.5319-400.784 99.7889-400.803 92.1765-399.936 92.4213-399.973 84.8386-398.55 85.0696-398.602 77.5317-396.642 77.748-396.706 70.2697-394.228 70.4712-394.302 63.0674-391.323 63.2543-391.405 55.9399-387.946 56.1128-388.033 48.9027-384.111 49.0626-384.204 41.9717-379.837 42.1193-379.933 35.1625-375.14 35.299-375.239 28.4912-370.039 28.6174-370.14 21.9736-364.551 22.1457-364.706 9.40938-352.435 9.61151-352.647-2.29028-339.043-2.11458-339.262-13.0626-324.473-12.9091-324.698-22.7842-308.872-22.6501-309.107-31.3331-292.393-31.2168-292.64-38.5884-275.184-38.513-275.379-41.6697-266.42-41.6251-266.556-44.4093-257.467-44.3696-257.607-46.7663-248.407-46.7318-248.553-48.7262-239.26-48.6974-239.411-50.2745-230.044-50.2519-230.2-51.3969-220.778-51.3811-220.94-52.079-211.481-52.0708-211.648-52.3067-202.17-52.3062-202.314-51.9863-183.377-51.9901-183.489-51.0578-164.701-51.0649-164.809-49.5611-146.317-49.5714-146.423-47.5369-128.375-47.5506-128.482-45.0261-111.027-45.0439-111.137-42.0703-94.4219-42.093-94.5382-38.7111-78.7123-38.7407-78.8387-34.9913-64.0497-35.0305-64.1915-30.9546-50.5877-31.0085-50.7524-26.6468-38.4817-26.7019-38.6265-24.4267-33.0374-24.4738-33.1476-22.1423-27.9474-22.2009-28.0713-19.8184-23.2784-19.8923-23.4189-17.464-19.052-17.5591-19.2126-15.0899-15.2901-15.2147-15.4748-12.7098-12.0152-12.8767-12.2276-10.3411-9.24945-10.5681-9.49137-8.00702-7.01317-8.31892-7.28079-5.73743-5.32107-6.16424-5.59782-3.56744-4.17509-4.1341-4.42217-1.52709-3.55496-2.22869-3.70924 0.383422-3.41605ZM226.909 3.39163 196.216 5.19685 213.188-20.4406Z" fill="#ED7D31" fill-rule="nonzero" fill-opacity="1" transform="matrix(-1 0 0 1 2137.72 1136.5)"/><text fill="#4472C4" fill-opacity="1" font-family="Times New Roman,Times New Roman_MSFontService,sans-serif" font-style="normal" font-variant="normal" font-weight="400" font-stretch="normal" font-size="83" text-anchor="start" direction="ltr" writing-mode="lr-tb" unicode-bidi="normal" text-decoration="none" transform="matrix(1 0 0 1 2018.83 717)">0</text><path d="M-0.383422 3.41605-3.35444 3.08258-6.59862 2.00341-9.69127 0.309016-12.6399-1.92939-15.4682-4.66621-18.1991-7.87375-20.8487-11.5332-23.427-15.6291-25.9394-20.1471-28.3877-25.0723-30.7717-30.3897-33.0987-36.1061-37.5155-48.5314-41.6374-62.2888-45.4208-77.2121-48.8286-93.1594-51.8224-109.987-54.3626-127.551-56.4092-145.706-57.9217-164.306-58.8594-183.205-59.1814-202.27-58.9416-211.903-58.2315-221.527-57.0672-231.108-55.4642-240.628-53.4381-250.068-51.0041-259.411-48.1777-268.638-44.9625-277.763-37.497-295.44-28.6886-312.397-18.6695-328.453-7.55684-343.465 4.53379-357.285 17.4591-369.737 24.2536-375.453 31.1926-380.754 38.2914-385.644 45.5361-390.106 52.9126-394.119 60.407-397.664 68.0052-400.72 75.6926-403.268 83.4544-405.285 91.2752-406.753 99.1389-407.649 107.028-407.952 114.919-407.645 122.786-406.737 130.609-405.25 138.373-403.206 146.063-400.625 153.662-397.529 161.158-393.938 168.535-389.873 175.78-385.354 182.879-380.4 189.818-375.032 196.583-369.268 203.16-363.127 209.56-356.603 221.625-342.636 232.735-327.435 242.752-311.175 251.559-294.005 259.022-276.105 262.236-266.866 265.062-257.524 267.495-248.064 269.52-238.506 271.123-228.868 272.286-219.167 272.996-209.424 273.236-199.662 272.811-180.329 271.571-161.155 269.571-142.286 266.865-123.869 263.507-106.051 259.548-88.9786 255.042-72.7982 250.039-57.6549 244.597-43.7188 241.707-37.2029 238.732-31.0581 235.666-25.279 232.513-19.8827 229.276-14.8864 225.783-10.066 218.321-3.63393 213.832-8.84126 220.99-15.0115 220.451-14.425 223.657-18.8481 223.555-18.6999 226.7-23.5543 226.617-23.4195 229.694-28.6865 229.626-28.5634 232.629-34.2243 232.572-34.1112 235.494-40.1472 235.446-40.0428 238.281-46.4351 238.221-46.2918 243.601-60.0705 243.54-59.8986 248.489-74.8775 248.441-74.7213 252.905-90.7506 252.868-90.6048 256.793-107.534 256.764-107.395 260.096-125.074 260.073-124.937 262.759-143.217 262.742-143.08 264.727-161.81 264.715-161.669 265.945-180.699 265.939-180.553 266.361-199.733 266.361-199.573 266.125-209.172 266.133-209.007 265.435-218.588 265.451-218.428 264.306-227.971 264.328-227.817 262.751-237.304 262.779-237.155 260.784-246.567 260.818-246.423 258.421-255.741 258.46-255.602 255.676-264.808 255.72-264.674 252.563-273.748 252.637-273.555 245.265-291.234 245.379-290.988 236.696-307.918 236.828-307.684 226.953-323.713 227.105-323.487 216.157-338.466 216.331-338.248 204.429-352.026 204.576-351.866 198.305-358.259 198.413-358.153 191.948-364.189 192.064-364.085 185.421-369.746 185.546-369.644 178.739-374.911 178.875-374.811 171.918-379.665 172.066-379.568 164.975-383.991 165.136-383.896 157.925-387.869 158.099-387.78 150.785-391.284 150.973-391.201 143.569-394.217 143.772-394.142 136.294-396.652 136.512-396.586 128.974-398.571 129.208-398.518 121.625-399.96 121.873-399.922 114.261-400.8 114.521-400.78 106.894-401.077 107.159-401.077 99.5319-400.784 99.7889-400.803 92.1765-399.936 92.4213-399.973 84.8386-398.55 85.0696-398.602 77.5317-396.642 77.748-396.706 70.2697-394.228 70.4712-394.302 63.0674-391.323 63.2543-391.405 55.9399-387.946 56.1128-388.033 48.9027-384.111 49.0626-384.204 41.9717-379.837 42.1193-379.933 35.1625-375.14 35.299-375.239 28.4912-370.039 28.6174-370.14 21.9736-364.551 22.1457-364.706 9.40938-352.435 9.61151-352.647-2.29028-339.043-2.11458-339.262-13.0626-324.473-12.9091-324.698-22.7842-308.872-22.6501-309.107-31.3331-292.393-31.2168-292.64-38.5884-275.184-38.513-275.379-41.6697-266.42-41.6251-266.556-44.4093-257.467-44.3696-257.607-46.7663-248.407-46.7318-248.553-48.7262-239.26-48.6974-239.411-50.2745-230.044-50.2519-230.2-51.3969-220.778-51.3811-220.94-52.079-211.481-52.0708-211.648-52.3067-202.17-52.3062-202.314-51.9863-183.377-51.9901-183.489-51.0578-164.701-51.0649-164.809-49.5611-146.317-49.5714-146.423-47.5369-128.375-47.5506-128.482-45.0261-111.027-45.0439-111.137-42.0703-94.4219-42.093-94.5382-38.7111-78.7123-38.7407-78.8387-34.9913-64.0497-35.0305-64.1915-30.9546-50.5877-31.0085-50.7524-26.6468-38.4817-26.7019-38.6265-24.4267-33.0374-24.4738-33.1476-22.1423-27.9474-22.2009-28.0713-19.8184-23.2784-19.8923-23.4189-17.464-19.052-17.5591-19.2126-15.0899-15.2901-15.2147-15.4748-12.7098-12.0152-12.8767-12.2276-10.3411-9.24945-10.5681-9.49137-8.00702-7.01317-8.31892-7.28079-5.73743-5.32107-6.16424-5.59782-3.56744-4.17509-4.1341-4.42217-1.52709-3.55496-2.22869-3.70924 0.383422-3.41605ZM226.909 3.39163 196.216 5.19685 213.188-20.4406Z" fill="#ED7D31" fill-rule="nonzero" fill-opacity="1" transform="matrix(-1 0 0 1 2620.72 1130.5)"/><text fill="#4472C4" fill-opacity="1" font-family="Times New Roman,Times New Roman_MSFontService,sans-serif" font-style="normal" font-variant="normal" font-weight="400" font-stretch="normal" font-size="83" text-anchor="start" direction="ltr" writing-mode="lr-tb" unicode-bidi="normal" text-decoration="none" transform="matrix(1 0 0 1 2501.94 712)">0</text><path d="M1654.5 1127.06 1918.48 1127.06 1918.48 1133.94 1654.5 1133.94ZM1913.89 1116.75 1941.39 1130.5 1913.89 1144.25Z" fill="#4472C4" fill-rule="nonzero" fill-opacity="1"/><text fill="#4472C4" fill-opacity="1" font-family="Times New Roman,Times New Roman_MSFontService,sans-serif" font-style="normal" font-variant="normal" font-weight="400" font-stretch="normal" font-size="83" text-anchor="start" direction="ltr" writing-mode="lr-tb" unicode-bidi="normal" text-decoration="none" transform="matrix(1 0 0 1 1775.55 1116)">1</text><path d="M2139.5 1135.06 2403.48 1135.06 2403.48 1141.94 2139.5 1141.94ZM2398.89 1124.75 2426.39 1138.5 2398.89 1152.25Z" fill="#4472C4" fill-rule="nonzero" fill-opacity="1"/><text fill="#4472C4" fill-opacity="1" font-family="Times New Roman,Times New Roman_MSFontService,sans-serif" font-style="normal" font-variant="normal" font-weight="400" font-stretch="normal" font-size="83" text-anchor="start" direction="ltr" writing-mode="lr-tb" unicode-bidi="normal" text-decoration="none" transform="matrix(1 0 0 1 2260.39 1123)">1</text><path d="M0.185073 3.43251-3.68075 3.64095-3.32341 3.60287-7.18169 4.2194-6.8492 4.14927-10.6924 5.16073-10.3896 5.0659-14.2101 6.45913-13.8157 6.2866-21.3585 10.1657-20.9351 9.90779-28.2967 15.156-27.9722 14.8935-35.0921 21.4055-34.8428 21.1526-41.6605 28.8231-41.4665 28.5842-47.9218 37.3078-47.7683 37.0822-53.8006 46.7537-53.6772 46.5389-59.226 57.0529-59.1254 56.8456-64.1304 68.0968-64.0476 67.8934-68.4485 79.7765-68.3805 79.5737-72.1166 91.9833-72.0616 91.7777-75.0727 104.609-75.03 104.397-77.2556 117.544-77.2255 117.323-78.6052 130.681-78.5891 130.448-79.0625 143.911-79.0691 143.544-78.8274 146.914-78.8946 146.441-78.1742 149.809-78.2953 149.381-77.104 152.746-77.2606 152.375-75.606 155.735-75.7806 155.422-73.6702 158.776-73.8492 158.518-71.2907 161.863-71.465 161.653-68.466 164.988-68.6307 164.818-65.1988 168.141-65.3514 168.002-61.4941 171.313-61.6341 171.199-57.359 174.495-57.4867 174.401-52.8015 177.68-52.9176 177.602-47.8298 180.863-47.9354 180.798-42.4526 184.04-42.5488 183.985-36.6787 187.205-36.7664 187.159-30.5165 190.356-30.5969 190.316-23.9748 193.488-24.0831 193.439-9.7527 199.703-9.87845 199.651 5.84952 205.796 5.74102 205.756 22.8058 211.77 22.7109 211.738 41.0518 217.607 40.9678 217.581 60.5239 223.293 60.4486 223.271 81.1593 228.812 81.0909 228.794 102.895 234.15 102.833 234.135 125.67 239.293 125.612 239.281 149.422 244.228 149.368 244.217 174.089 248.941 174.038 248.932 199.61 253.419 199.561 253.411 225.923 257.647 225.876 257.64 252.967 261.614 252.922 261.607 280.682 265.304 280.638 265.299 309.005 268.706 308.962 268.701 337.876 271.806 337.833 271.802 367.234 274.59 367.191 274.587 397.017 277.046 396.954 277.041 457.637 280.921 457.574 280.917 488.311 282.31 488.267 282.309 519.187 283.32 519.143 283.319 550.183 283.935 550.138 283.935 581.24 284.143 581.194 284.143 612.295 283.938 612.251 283.939 643.292 283.332 643.248 283.333 674.167 282.338 674.125 282.339 704.862 280.968 704.799 280.972 765.483 277.155 765.421 277.159 795.246 274.739 795.205 274.742 824.605 271.998 824.563 272.002 853.477 268.947 853.435 268.952 881.802 265.599 881.758 265.604 909.518 261.966 909.473 261.972 936.564 258.062 936.518 258.069 962.88 253.9 962.832 253.908 988.404 249.492 988.354 249.501 1013.08 244.853 1013.02 244.863 1036.83 239.995 1036.77 240.007 1059.61 234.931 1059.55 234.945 1081.35 229.675 1081.29 229.692 1102 224.24 1101.92 224.26 1121.48 218.64 1121.4 218.665 1139.74 212.89 1139.64 212.921 1156.71 207.003 1156.6 207.042 1172.33 200.994 1172.2 201.045 1186.53 194.881 1186.43 194.929 1193.05 191.807 1192.97 191.846 1199.22 188.7 1199.13 188.746 1205 185.577 1204.91 185.631 1210.39 182.441 1210.28 182.505 1215.37 179.295 1215.26 179.372 1219.94 176.145 1219.81 176.237 1224.09 172.994 1223.95 173.106 1227.81 169.849 1227.65 169.986 1231.08 166.716 1230.92 166.885 1233.92 163.603 1233.74 163.812 1236.3 160.521 1236.12 160.778 1238.23 157.478 1238.05 157.792 1239.7 154.486 1239.54 154.86 1240.73 151.549 1240.61 151.983 1241.33 148.668 1241.26 149.148 1241.5 145.832 1241.5 146.205 1241.02 132.957 1241.04 133.193 1239.66 120.048 1239.69 120.272 1237.46 107.335 1237.51 107.549 1234.5 94.9229 1234.55 95.1312 1230.82 82.9193 1230.89 83.1244 1226.49 71.4307 1226.57 71.6359 1221.57 60.564 1221.67 60.7727 1216.12 50.4263 1216.25 50.6419 1210.21 41.1246 1210.37 41.3503 1203.92 32.7657 1204.11 33.0039 1197.29 25.4557 1197.55 25.7066 1190.43 19.2984 1191.12 19.7847 1182.45 15.2175 1185.66 9.13488 1194.71 13.9017 1202.28 20.7155 1209.32 28.5103 1215.95 37.3282 1222.12 47.0669 1227.78 57.626 1232.88 68.9052 1237.36 80.8043 1241.16 93.223 1244.22 106.061 1246.48 119.218 1247.89 132.593 1248.37 146.146 1248.1 149.891 1247.28 153.664 1245.94 157.38 1244.12 161.03 1241.82 164.615 1239.08 168.14 1235.91 171.611 1232.32 175.034 1228.32 178.417 1223.91 181.762 1219.1 185.073 1213.9 188.352 1208.32 191.601 1202.35 194.819 1196.02 198.007 1189.31 201.173 1174.86 207.387 1159.01 213.479 1141.85 219.432 1123.42 225.236 1103.79 230.879 1083 236.349 1061.13 241.635 1038.24 246.724 1014.37 251.604 989.599 256.263 963.978 260.687 937.57 264.863 910.433 268.78 882.63 272.424 854.22 275.782 825.264 278.841 795.823 281.589 765.946 284.014 705.199 287.835 674.41 289.209 643.448 290.205 612.363 290.813 581.216 291.018 550.069 290.81 518.984 290.192 488.021 289.179 457.231 287.784 396.483 283.9 366.605 281.437 337.163 278.644 308.206 275.535 279.796 272.122 251.992 268.419 224.855 264.439 198.446 260.195 172.824 255.699 148.05 250.965 124.184 246.006 101.287 240.834 79.4168 235.462 58.6342 229.903 38.9983 224.168 20.5679 218.271 3.40131 212.221-12.444 206.029-26.8913 199.714-33.6075 196.497-39.9416 193.257-45.9038 189.986-51.4876 186.685-56.6865 183.353-61.4939 179.988-65.9032 176.589-69.9074 173.152-73.4989 169.674-76.6686 166.148-79.4053 162.57-81.6946 158.932-83.5175 155.231-84.8506 151.465-85.6676 147.645-85.9397 143.853-85.4558 130.09-84.0527 116.506-81.7905 103.143-78.7304 90.1033-74.9327 77.4892-70.4566 65.4028-65.36 53.946-59.6995 43.2205-53.5294 33.328-46.9014 24.3709-39.8632 16.4524-32.4579 9.67933-24.7237 4.1655-16.7681 0.0740925-12.5958-1.44744-8.4345-2.54262-4.23057-3.21439-0.185073-3.43251ZM1183.82 26.6681 1162.43 4.58333 1192.94 0.721418Z" fill="#4472C4" fill-rule="nonzero" fill-opacity="1" transform="matrix(-1 0 0 1 2620.93 1130.5)"/><text fill="#4472C4" fill-opacity="1" font-family="Times New Roman,Times New Roman_MSFontService,sans-serif" font-style="normal" font-variant="normal" font-weight="400" font-stretch="normal" font-size="83" text-anchor="start" direction="ltr" writing-mode="lr-tb" unicode-bidi="normal" text-decoration="none" transform="matrix(1 0 0 1 2018.83 1391)">1</text></g></svg>